F1 2013 Melbourne, Australia

Coverage of the Melbourne Race Live from SKY SPORTS F1 HD. Sebastian Vettel sits on pole for the 1st Race of the Season.

To reduce SKY's LIVE sync errors with audio during add-breaks, 
the commercials have been left intact as removing them can cause considerable encoding and playback problems as the live stream switches from Dolby Digital
to standard stereo output during add breaks and then back, which plays havoc with encoding the feed as AC3 Digital.

To keep file sizes to a minimum, the video has been scaled from 1080p source down to 720p. High Profile 3.1 has been used to cut down on encoding times.

All torrents for F1 2013 will be encoded to MKV format with 720p resolution & AC3 Dolby Digital Audio. These video files should play smoothly with the standard
media players such as VLC, WMP, KM Player, WMC, MP-HC.

**For those having mkv playback issues on Windows 7 or 8, I recommend Shark Codec Packs which are available free here:


FOR ALL YOUR LATEST F1 NEWS, GOSSIP AND DISCUSSION PLUS FULL TORRENT INFORMATION IN DETAIL AND MUCH MORE PLEASE VISIT MY FORUM: http://www.f1racingleague.co.uk/f82-formula-1-2013-torrents

Follow my Twitter For All F1 Info here:

 
Thank you

Theblacknight



File Details:

Complete name                            : R:Recorded TVMelbourneF1 2013 Race 1 Melbourne Race DayMelbourne Race .HD.720p. H264.AC3.TBK.mkv
Format                                   : Matroska
Format version                           : Version 2
File size                                : 7.32 GiB
Duration                                 : 3h 50mn
Overall bit rate                         : 4 537 Kbps
Writing application                      : HandBrake 0.9.8
Writing library                          : libmkv 0.6.5

Video
ID                                       : 1
Format                                   : AVC
Format/Info                              : Advanced Video Codec
Format profile                           : High@L3.1
Format settings, CABAC                   : Yes
Format settings, ReFrames                : 4 frames
Codec ID                                 : V_MPEG4/ISO/AVC
Duration                                 : 3h 50mn
Bit rate                                 : 4 063 Kbps
Width                                    : 1 280 pixels
Height                                   : 720 pixels
Display aspect ratio                     : 16:9
Original display aspect ratio            : 16:9
Frame rate mode                          : Constant
Frame rate                               : 25.000 fps
Color space                              : YUV
Chroma subsampling                       : 4:2:0
Bit depth                                : 8 bits
Scan type                                : Progressive
Bits/(Pixel*Frame)                       : 0.176
Stream size                              : 6.55 GiB (90%)
Writing library                          : x264 core 120
Encoding settings                        : cabac=1 / ref=2 / deblock=1:0:0 / analyse=0x3:0x113 / me=hex / subme=4 / psy=1 / psy_rd=1.00:0.00 / mixed_ref=0 / me_range=16 / chroma_me=1 / trellis=1 / 8x8dct=1 / cqm=0 / deadzone=21,11 / fast_pskip=1 / chroma_qp_offset=0 / threads=4 / sliced_threads=0 / nr=0 / decimate=1 / interlaced=0 / bluray_compat=0 / constrained_intra=0 / bframes=3 / b_pyramid=2 / b_adapt=2 / b_bias=0 / direct=1 / weightb=1 / open_gop=0 / weightp=1 / keyint=250 / keyint_min=25 / scenecut=40 / intra_refresh=0 / rc_lookahead=50 / rc=crf / mbtree=1 / crf=21.0 / qcomp=0.60 / qpmin=3 / qpmax=69 / qpstep=4 / ip_ratio=1.40 / aq=1:1.00
Language                                 : English
Default                                  : Yes
Forced                                   : No
Color primaries                          : BT.709
Transfer characteristics                 : BT.709
Matrix coefficients                      : BT.709

Audio
ID                                       : 2
Format                                   : AC-3
Format/Info                              : Audio Coding 3
Mode extension                           : CM (complete main)
Format settings, Endianness              : Big
Codec ID                                 : A_AC3
Duration                                 : 3h 50mn
Bit rate mode                            : Constant
Bit rate                                 : 384 Kbps
Channel(s)                               : 6 channels
Channel positions                        : Front: L C R, Side: L R, LFE
Sampling rate                            : 48.0 KHz
Bit depth                                : 16 bits
Compression mode                         : Lossy
Stream size                              : 634 MiB (8%)
Default                                  : Yes
Forced                                   : No

